# Exported from Wings 3D 0.99.04a
mtllib alien_console.mtl
o cube1
#17 vertices, 13 faces
v -1.00000000 -1.05005285 1.27081941
v -1.00000000 1.38617115 1.27081941
v 1.00000000 1.38617115 1.27081941
v 1.00000000 -1.05005285 1.27081941
v -1.00000000 -1.05005285 -2.5180594e-2
v -1.00000000 0.94994715 0.67353966
v 1.00000000 0.94994715 0.67353966
v 1.00000000 -1.05005285 -2.5180594e-2
v -1.00000000 -5.0052846e-2 -2.5180594e-2
v 0.0000000e+0 -0.84803527 0.10572680
v 0.0000000e+0 0.68398750 0.74115456
v 1.00000000 -5.0052846e-2 -2.5180594e-2
v 0.0000000e+0 -0.16433239 0.14449445
v 1.00000000 -5.0052846e-2 1.27081941
v 0.0000000e+0 -1.05005285 1.27081941
v 0.0000000e+0 1.10661915 1.27081941
v -1.00000000 -5.0052846e-2 1.27081941
vt 4.1502882e-2 0.42509978
vt 4.1755327e-2 0.75077582
vt 5.4151376e-2 0.94748969
vt 6.8028371e-2 0.16119252
vt 7.4338571e-2 3.9520161e-2
vt 9.2723407e-2 6.5956248e-2
vt 0.21312021 7.9806370e-2
vt 0.24299958 2.4248085e-2
vt 0.30456371 5.2848356e-2
vt 0.36334277 4.0247824e-2
vt 0.50150278 0.23048435
vt 0.50150278 0.41750780
vt 0.50150278 0.70687749
vt 0.50150278 0.89154027
vt 0.50301389 1.7693868e-2
vt 0.50301389 3.8400376e-2
vt 0.50301389 7.9705006e-2
vt 0.64268502 4.0247824e-2
vt 0.70146408 5.2848356e-2
vt 0.76302821 2.4248085e-2
vt 0.79290758 7.9806370e-2
vt 0.91330438 6.5956248e-2
vt 0.93168922 3.9520161e-2
vt 0.93497720 0.16119252
vt 0.94885419 0.94748969
vt 0.96125024 0.75077582
vt 0.96150268 0.42509978
vn -0.55198830 -0.61154987 0.56684714
vn -0.65977391 0.66393317 0.35198173
vn 0.65977391 0.66393317 0.35198173
vn 0.55198830 -0.61154987 0.56684714
vn -0.45965221 -0.59587347 -0.65852461
vn -0.28196720 0.66438727 -0.69215898
vn 0.28196720 0.66438727 -0.69215898
vn 0.45965221 -0.59587347 -0.65852461
vn -0.65894932 0.23351822 -0.71502100
vn -3.8463722e-17 -0.67095387 -0.74149909
vn -2.1580819e-17 0.69248553 -0.72143176
vn 0.65894932 0.23351822 -0.71502100
vn -1.4733103e-17 0.31045221 -0.95058899
vn 0.89442719 0.0000000e+0 0.44721360
vn -7.0944176e-17 -0.92118789 0.38911808
vn -7.1256967e-17 0.99334122 -0.11520950
vn -0.89442719 0.0000000e+0 0.44721360
g cube1_cube1_auv
usemtl cube1_auv
f 1/10/1 5/8/5 10/15/10 15/16/15
f 1/10/1 15/16/15 4/18/4 14/19/14 3/21/3 16/17/16 2/7/2 17/9/17
f 4/18/4 15/16/15 10/15/10 8/20/8
f 6/6/6 9/5/9 17/9/17 2/7/2
f 7/2/7 11/13/11 16/14/16 3/3/3
f 8/20/8 12/23/12 14/19/14 4/18/4
f 9/27/9 13/12/13 10/11/10 5/24/5
f 10/11/10 13/12/13 12/1/12 8/4/8
f 11/13/11 13/12/13 9/27/9 6/26/6
f 12/1/12 13/12/13 11/13/11 7/2/7
f 14/19/14 12/23/12 7/22/7 3/21/3
f 16/14/16 11/13/11 6/26/6 2/25/2
f 17/9/17 9/5/9 5/8/5 1/10/1
