# Exported from Wings 3D 0.99.04a
mtllib alien_test.mtl
o limb_head
#6 vertices, 8 faces
v 2.6050569e-2 1.95695663 0.35814903
v -1.5814315e-4 2.41900542 5.5794692e-3
v 0.73041582 1.93734707 -9.3909682e-4
v -1.5814315e-4 1.46884996 2.1637078e-4
v -0.73442965 1.94005992 2.0067417e-2
v -1.4330589e-2 1.93569706 -0.14096027
vn 2.3210832e-2 6.5213885e-3 0.99970932
vn 3.5939010e-3 0.97342265 -0.22898784
vn 0.93399204 9.2543791e-3 -0.35717394
vn 2.7610686e-5 -0.97710515 -0.21275696
vn -0.95402423 8.8295368e-3 -0.29959941
vn -1.6798001e-2 4.1474022e-4 -0.99985882
g limb_head_default
usemtl default
f 1//1 3//3 2//2
f 2//2 5//5 1//1
f 2//2 6//6 5//5
f 3//3 4//4 6//6
f 3//3 6//6 2//2
f 4//4 3//3 1//1
f 5//5 4//4 1//1
f 5//5 6//6 4//4
o limb_right_leg_lower
#6 vertices, 8 faces
v 0.46158613 -2.48949993 -0.31114195
v 0.45185333 -2.85066205 4.7083833e-3
v 0.72315758 -2.43802526 1.0548057e-2
v 0.45185333 -1.43708233 9.5129287e-3
v 0.17917597 -2.44514644 -8.2706812e-3
v 0.44659028 -2.43369403 0.32536326
vn 3.5085712e-2 -0.21896634 -0.97510140
vn 1.1646057e-2 -0.99877675 4.8055881e-2
vn 0.98392278 -0.17592965 3.0736299e-2
vn 1.4601104e-2 0.99644007 -8.3030128e-2
vn -0.98328633 -0.18053048 -2.3595305e-2
vn -2.1498686e-2 -0.20126713 0.97930044
g limb_right_leg_lower_default
usemtl default
f 7//7 9//9 8//8
f 8//8 11//11 7//7
f 8//8 12//12 11//11
f 9//9 10//10 12//12
f 9//9 12//12 8//8
f 10//10 9//9 7//7
f 11//11 10//10 7//7
f 11//11 12//12 10//10
o limb_right_leg_upper
#6 vertices, 8 faces
v 0.44944815 -0.78386347 0.32138195
v 0.43971534 -0.43904567 5.5316167e-3
v 0.71101959 -0.83533814 -3.0805725e-4
v 0.43971534 -1.56513279 7.2707133e-4
v 0.16703799 -0.82821696 1.8510681e-2
v 0.43445230 -0.83966937 -0.31512326
vn 3.5211749e-2 0.17984067 0.98306534
vn 1.1415477e-2 0.99872440 -4.9185907e-2
vn 0.98944860 0.14186995 -2.9400439e-2
vn 9.1889703e-3 -0.99719506 7.4280406e-2
vn -0.98885125 0.14679164 2.5008474e-2
vn -2.2081742e-2 0.16034352 -0.98681424
g limb_right_leg_upper_default
usemtl default
f 13//13 15//15 14//14
f 14//14 17//17 13//13
f 14//14 18//18 17//17
f 15//15 16//16 18//18
f 15//15 18//18 14//14
f 16//16 15//15 13//13
f 17//17 16//16 13//13
f 17//17 18//18 16//16
o limb_left_leg_lower
#6 vertices, 8 faces
v -0.42373341 -2.48949993 0.32138195
v -0.41400060 -2.85066205 5.5316167e-3
v -0.68530485 -2.43802526 -3.0805725e-4
v -0.41400060 -1.43708233 7.2707133e-4
v -0.14132324 -2.44514644 1.8510681e-2
v -0.40873755 -2.43369403 -0.31512326
vn -3.5085712e-2 -0.21896634 0.97510140
vn -1.1646057e-2 -0.99877675 -4.8055881e-2
vn -0.98392278 -0.17592965 -3.0736299e-2
vn -1.4601104e-2 0.99644007 8.3030128e-2
vn 0.98328633 -0.18053048 2.3595305e-2
vn 2.1498686e-2 -0.20126713 -0.97930044
g limb_left_leg_lower_default
usemtl default
f 19//19 21//21 20//20
f 20//20 23//23 19//19
f 20//20 24//24 23//23
f 21//21 22//22 24//24
f 21//21 24//24 20//20
f 22//22 21//21 19//19
f 23//23 22//22 19//19
f 23//23 24//24 22//22
o limb_left_leg_upper
#6 vertices, 8 faces
v -0.40215824 -0.78386347 -0.31114195
v -0.39242543 -0.43904567 4.7083833e-3
v -0.66372968 -0.83533814 1.0548057e-2
v -0.39242543 -1.56513279 9.5129287e-3
v -0.11974807 -0.82821696 -8.2706812e-3
v -0.38716238 -0.83966937 0.32536326
vn -3.5211749e-2 0.17984067 -0.98306534
vn -1.1415477e-2 0.99872440 4.9185907e-2
vn -0.98944860 0.14186995 2.9400439e-2
vn -9.1889703e-3 -0.99719506 -7.4280406e-2
vn 0.98885125 0.14679164 -2.5008474e-2
vn 2.2081742e-2 0.16034352 0.98681424
g limb_left_leg_upper_default
usemtl default
f 25//25 27//27 26//26
f 26//26 29//29 25//25
f 26//26 30//30 29//29
f 27//27 28//28 30//30
f 27//27 30//30 26//26
f 28//28 27//27 25//25
f 29//29 28//28 25//25
f 29//29 30//30 28//28
o limb_right_arm_lower
#6 vertices, 8 faces
v 1.80754697 1.13981845 -0.31114195
v 2.16870908 1.13008565 4.7083833e-3
v 1.75607229 1.40138989 1.0548057e-2
v 0.75512936 1.13008565 9.5129287e-3
v 1.76319347 0.85740829 -8.2706812e-3
v 1.75174106 1.12482260 0.32536326
vn 0.21896634 3.5085712e-2 -0.97510140
vn 0.99877675 1.1646057e-2 4.8055881e-2
vn 0.17592965 0.98392278 3.0736299e-2
vn -0.99644007 1.4601104e-2 -8.3030128e-2
vn 0.18053048 -0.98328633 -2.3595305e-2
vn 0.20126713 -2.1498686e-2 0.97930044
g limb_right_arm_lower_default
usemtl default
f 31//31 33//33 32//32
f 32//32 35//35 31//31
f 32//32 36//36 35//35
f 33//33 34//34 36//36
f 33//33 36//36 32//32
f 34//34 33//33 31//31
f 35//35 34//34 31//31
f 35//35 36//36 34//34
o limb_right_arm_upper
#6 vertices, 8 faces
v 0.42951114 1.16577071 0.32138195
v 8.4693342e-2 1.15603790 5.5316167e-3
v 0.48098581 1.42734215 -3.0805725e-4
v 1.21078046 1.15603790 7.2707133e-4
v 0.47386463 0.88336055 1.8510681e-2
v 0.48531705 1.15077486 -0.31512326
vn -0.17984067 3.5211749e-2 0.98306534
vn -0.99872440 1.1415477e-2 -4.9185907e-2
vn -0.14186995 0.98944860 -2.9400439e-2
vn 0.99719506 9.1889703e-3 7.4280406e-2
vn -0.14679164 -0.98885125 2.5008474e-2
vn -0.16034352 -2.2081742e-2 -0.98681424
g limb_right_arm_upper_default
usemtl default
f 37//37 39//39 38//38
f 38//38 41//41 37//37
f 38//38 42//42 41//41
f 39//39 40//40 42//42
f 39//39 42//42 38//38
f 40//40 39//39 37//37
f 41//41 40//40 37//37
f 41//41 42//42 40//40
o limb_left_arm_lower
#6 vertices, 8 faces
v -1.85462889 1.13981845 0.32138195
v -2.21579101 1.13008565 5.5316167e-3
v -1.80315422 1.40138989 -3.0805725e-4
v -0.80221128 1.13008565 7.2707133e-4
v -1.81027540 0.85740829 1.8510681e-2
v -1.79882299 1.12482260 -0.31512326
vn -0.21896634 3.5085712e-2 0.97510140
vn -0.99877675 1.1646057e-2 -4.8055881e-2
vn -0.17592965 0.98392278 -3.0736299e-2
vn 0.99644007 1.4601104e-2 8.3030128e-2
vn -0.18053048 -0.98328633 2.3595305e-2
vn -0.20126713 -2.1498686e-2 -0.97930044
g limb_left_arm_lower_default
usemtl default
f 43//43 45//45 44//44
f 44//44 47//47 43//43
f 44//44 48//48 47//47
f 45//45 46//46 48//48
f 45//45 48//48 44//44
f 46//46 45//45 43//43
f 47//47 46//46 43//43
f 47//47 48//48 46//46
o limb_left_arm_upper
#6 vertices, 8 faces
v -0.47187447 1.16577071 -0.31114195
v -0.12705668 1.15603790 4.7083833e-3
v -0.52334915 1.42734215 1.0548057e-2
v -1.25314379 1.15603790 9.5129287e-3
v -0.51622797 0.88336055 -8.2706812e-3
v -0.52768038 1.15077486 0.32536326
vn 0.17984067 3.5211749e-2 -0.98306534
vn 0.99872440 1.1415477e-2 4.9185907e-2
vn 0.14186995 0.98944860 2.9400439e-2
vn -0.99719506 9.1889703e-3 -7.4280406e-2
vn 0.14679164 -0.98885125 -2.5008474e-2
vn 0.16034352 -2.2081742e-2 0.98681424
g limb_left_arm_upper_default
usemtl default
f 49//49 51//51 50//50
f 50//50 53//53 49//49
f 50//50 54//54 53//53
f 51//51 52//52 54//54
f 51//51 54//54 50//50
f 52//52 51//51 49//49
f 53//53 52//52 49//49
f 53//53 54//54 52//52
o limb_body
#6 vertices, 8 faces
v 2.3226438e-2 4.7500936e-2 0.59099378
v 1.1102230e-16 1.73203979 6.1786848e-3
v 0.64744236 -2.3991664e-2 -8.8410526e-3
v -1.1102230e-16 -1.73203979 -6.1786848e-3
v -0.65071916 -1.4101136e-2 3.9561053e-2
v -1.2559771e-2 -3.0007269e-2 -0.59099378
vn 3.9840140e-2 -1.2303430e-4 0.99920606
vn 2.0686264e-2 0.99978571 7.8541470e-4
vn 0.99975777 -1.1312124e-3 -2.1979810e-2
vn 1.4226270e-2 -0.99802976 6.1108176e-2
vn -0.99895484 -4.0281119e-4 4.5706219e-2
vn -2.8653637e-2 -1.2898555e-3 -0.99958857
g limb_body_default
usemtl default
f 55//55 57//57 56//56
f 56//56 59//59 55//55
f 56//56 60//60 59//59
f 57//57 58//58 60//60
f 57//57 60//60 56//56
f 58//58 57//57 55//55
f 59//59 58//58 55//55
f 59//59 60//60 58//58
