# Exported from Wings 3D 0.99.04a
mtllib shotgun.mtl
o test
#60 vertices, 60 faces
v 0.11452315 -6.0541026e-3 4.23388422
v -0.11013539 -6.0541026e-3 4.23388422
v -7.9830054e-2 0.27198864 1.58887429
v 8.4217818e-2 0.27198864 1.58887429
v 8.4217818e-2 0.27198864 4.23388422
v -7.9830054e-2 0.27198864 4.23388422
v -0.11013539 -0.10208285 3.92430868
v 0.11452315 -0.10208285 3.92430868
v 0.11452315 -0.10208285 3.75590685
v -0.11013539 -0.10208285 3.75590685
v -0.11013539 -0.38012483 3.92430868
v 0.11452315 -0.38012483 3.92430868
v 0.11452315 -0.38012483 3.75590685
v -0.11013539 -0.38012483 3.75590685
v -0.14294263 -0.42072786 3.61401759
v 0.14732978 -0.42072786 3.61401759
v -0.14294263 -6.1479821e-2 3.61401759
v 0.14733040 -6.1479821e-2 3.61401759
v 0.14733040 -6.1479821e-2 2.37571392
v -0.14294263 -6.1479821e-2 2.37571392
v 0.14732978 -0.42072786 2.37571392
v -0.14294263 -0.42072786 2.37571392
v -0.11392041 -0.38481003 2.28542096
v 0.11830818 -0.38480927 2.28542096
v -0.11392041 -9.7397651e-2 2.28542096
v 0.11830818 -9.7397651e-2 2.28542096
v 0.15559254 -5.1725877e-2 1.59854865
v -0.15120477 -5.1725877e-2 1.59854865
v 0.15813426 -0.38481003 1.20482450
v -0.15374649 -0.38481003 1.20482450
v -7.0982586e-2 0.34393709 1.33163631
v 7.5370355e-2 0.34393709 1.33163631
v -7.0982586e-2 0.36036703 -0.17721561
v 7.5370355e-2 0.36036703 -0.17721561
v 0.11456541 0.23030318 -0.42483457
v -0.11017764 0.23030318 -0.42483457
v 0.18072377 0.14252224 -2.92660751
v -0.17633662 0.14252224 -2.92660751
v -0.17633662 -1.11080272 -2.86808612
v 0.18072377 -1.11080272 -2.86808612
v 0.11452315 -0.27200143 -1.10757957
v -0.11013539 -0.27200143 -1.10757957
v 0.11452315 -0.36466011 -0.90763282
v -0.11013539 -0.36466011 -0.90763282
v -0.11013539 -0.48657835 -0.91250903
v 0.11452315 -0.48657835 -0.91250903
v 0.11452315 -1.37414708 -1.44895169
v -0.11013539 -1.37414708 -1.44895169
v 0.11452315 -1.54971049 -1.00516771
v -0.11013539 -1.54971049 -1.00516771
v 7.7243078e-2 -0.89622580 -0.57601388
v -7.2855309e-2 -0.89622580 -0.57601388
v 7.7243078e-2 -0.74016952 -0.19562750
v -7.2855309e-2 -0.74016952 -0.19562750
v 0.15305081 -0.45493943 0.66839624
v -0.14866304 -0.45493943 0.66839624
v 0.11452315 -1.52056918 0.66293864
v -0.11013539 -1.52056918 0.66293864
v 0.11452315 -1.47655894 1.44296081
v -0.11013539 -1.47655894 1.44296081
vt 3.4358000e-2 0.54664600
vt 3.4358000e-2 0.57833400
vt 6.5545000e-2 0.50565100
vt 6.5545000e-2 0.53734000
vt 8.4738000e-2 0.50565100
vt 8.4738000e-2 0.53734000
vt 0.10090900 0.50102300
vt 0.10090900 0.54196700
vt 0.24203900 0.50102300
vt 0.24203900 0.54196700
vt 0.25233000 0.50511700
vt 0.25233000 0.53787300
vt 0.39479400 0.57751500
vt 0.41398800 0.51167000
vt 0.41853400 0.46703400
vt 0.42072500 0.54553600
vt 0.43644500 0.59047000
vt 0.50743400 0.46201800
vt 0.50995700 0.50587300
vt 0.62520800 0.46707400
vt 0.63083000 0.59158900
vt 0.65052500 0.56996200
vt 0.66856100 0.44928800
vt 0.70635600 0.50987100
vt 0.70691100 0.49597600
vt 0.71747200 0.37481000
vt 0.75535800 0.52895100
vt 0.76805000 0.39481900
vt 0.97566400 0.47136300
vt 0.97971300 0.56898500
vn 0.59850671 -0.50572991 0.62131069
vn -0.59850671 -0.50572991 0.62131069
vn -0.63846255 0.76333486 9.8414767e-2
vn 0.63846255 0.76333486 9.8414775e-2
vn 0.53903540 0.63783264 0.55010032
vn -0.53903540 0.63783264 0.55010032
vn -0.57735027 0.57735027 0.57735027
vn 0.57735027 0.57735027 0.57735027
vn 0.69822145 0.69366417 0.17696561
vn -0.69822112 0.69366434 0.17696625
vn -0.57735027 -0.57735027 0.57735027
vn 0.57735027 -0.57735027 0.57735027
vn 0.69822113 -0.69366452 0.17696553
vn -0.69822112 -0.69366434 0.17696626
vn -0.69822112 -0.69366434 0.17696626
vn 0.69822083 -0.69366483 0.17696545
vn -0.69822112 0.69366434 0.17696625
vn 0.69822174 0.69366386 0.17696568
vn 0.69063833 0.68255343 -0.23903871
vn -0.69063756 0.68255392 -0.23903956
vn 0.69063774 -0.68255375 -0.23903953
vn -0.69063734 -0.68255369 -0.23904085
vn -0.68896190 -0.68950051 -0.22342907
vn 0.68896309 -0.68949976 -0.22342770
vn -0.70071978 0.68382466 -0.20340999
vn 0.70072026 0.68382446 -0.20340900
vn 0.99228043 0.11880195 3.5575767e-2
vn -0.99228043 0.11880196 3.5575756e-2
vn 0.95807528 -0.14952951 0.24440272
vn -0.95807523 -0.14952959 0.24440287
vn -0.64822909 0.75547325 9.5179933e-2
vn 0.64822908 0.75547325 9.5179940e-2
vn -0.67693526 0.71938423 -0.15570801
vn 0.67693526 0.71938423 -0.15570802
vn 0.82449719 0.55076273 -0.12986454
vn -0.82449721 0.55076272 -0.12986445
vn 0.58842764 0.55392147 -0.58900247
vn -0.58842772 0.55392149 -0.58900238
vn -0.67233742 -0.64679424 -0.36002722
vn 0.67233741 -0.64679415 -0.36002742
vn 0.74201749 -0.67032480 8.6427207e-3
vn -0.74201747 -0.67032483 8.6428377e-3
vn 0.74812688 -0.37220996 -0.54933225
vn -0.74812688 -0.37220997 -0.54933225
vn -0.85179013 9.8874324e-2 -0.51446811
vn 0.85179013 9.8874332e-2 -0.51446811
vn 0.62421417 -0.26026385 -0.73662704
vn -0.62421417 -0.26026386 -0.73662704
vn 0.53710736 -0.79718226 0.27571021
vn -0.53710736 -0.79718226 0.27571021
vn 0.70429717 -0.54539222 0.45443682
vn -0.70429717 -0.54539222 0.45443682
vn 0.67104151 -0.70279053 0.23619644
vn -0.67104151 -0.70279054 0.23619644
vn 0.95586574 -0.23876609 -0.17120586
vn -0.95586574 -0.23876609 -0.17120586
vn 0.58141954 -0.60010989 -0.54938096
vn -0.58141954 -0.60010988 -0.54938096
vn 0.60332782 -0.49714417 0.62357294
vn -0.60332782 -0.49714417 0.62357294
g test_None_pump-action-shotgun-a
usemtl None_pump-action-shotgun-a
f 1/1/1 5/2/5 6/2/6 2/1/2
f 1/1/1 27/16/27 4/13/4 5/2/5
f 2/1/2 28/16/28 27/16/27 1/1/1
f 3/13/3 6/2/6 5/2/5 4/13/4
f 3/13/3 31/17/31 28/16/28
f 4/13/4 32/17/32 31/17/31 3/13/3
f 6/2/6 3/13/3 28/16/28 2/1/2
f 7/4/7 11/3/11 12/3/12 8/4/8
f 8/4/8 9/6/9 10/6/10 7/4/7
f 8/4/8 12/3/12 13/5/13 9/6/9
f 9/6/9 18/8/18 17/8/17 10/6/10
f 10/6/10 14/5/14 11/3/11 7/4/7
f 10/6/10 17/8/17 15/7/15 14/5/14
f 11/3/11 14/5/14 13/5/13 12/3/12
f 13/5/13 16/7/16 18/8/18 9/6/9
f 14/5/14 15/7/15 16/7/16 13/5/13
f 15/7/15 22/9/22 21/9/21 16/7/16
f 16/7/16 21/9/21 19/10/19 18/8/18
f 17/8/17 20/10/20 22/9/22 15/7/15
f 18/8/18 19/10/19 20/10/20 17/8/17
f 19/10/19 26/12/26 25/12/25 20/10/20
f 20/10/20 25/12/25 23/11/23 22/9/22
f 21/9/21 24/11/24 26/12/26 19/10/19
f 22/9/22 23/11/23 24/11/24 21/9/21
f 23/11/23 30/14/30 29/14/29 24/11/24
f 24/11/24 29/14/29 27/16/27 26/12/26
f 25/12/25 28/16/28 30/14/30 23/11/23
f 26/12/26 27/16/27 28/16/28 25/12/25
f 27/16/27 32/17/32 4/13/4
f 28/16/28 31/17/31 33/21/33 30/14/30
f 29/14/29 34/21/34 32/17/32 27/16/27
f 29/14/29 55/19/55 35/22/35 34/21/34
f 29/14/29 59/15/59 57/18/57 55/19/55
f 30/14/30 60/15/60 59/15/59 29/14/29
f 32/17/32 34/21/34 33/21/33 31/17/31
f 33/21/33 36/22/36 56/19/56 30/14/30
f 34/21/34 35/22/35 36/22/36 33/21/33
f 35/22/35 37/30/37 38/30/38 36/22/36
f 35/22/35 41/27/41 40/29/40 37/30/37
f 35/22/35 55/19/55 43/24/43 41/27/41
f 37/30/37 40/29/40 39/29/39 38/30/38
f 38/30/38 39/29/39 42/27/42 36/22/36
f 40/29/40 41/27/41 42/27/42 39/29/39
f 41/27/41 43/24/43 44/24/44 42/27/42
f 42/27/42 44/24/44 56/19/56 36/22/36
f 43/24/43 46/25/46 45/25/45 44/24/44
f 43/24/43 55/19/55 53/20/53 46/25/46
f 45/25/45 54/20/54 56/19/56 44/24/44
f 46/25/46 47/28/47 48/28/48 45/25/45
f 46/25/46 51/23/51 49/26/49 47/28/47
f 46/25/46 53/20/53 51/23/51
f 47/28/47 49/26/49 50/26/50 48/28/48
f 48/28/48 50/26/50 52/23/52 45/25/45
f 49/26/49 51/23/51 52/23/52 50/26/50
f 51/23/51 53/20/53 54/20/54 52/23/52
f 52/23/52 54/20/54 45/25/45
f 53/20/53 55/19/55 56/19/56 54/20/54
f 55/19/55 57/18/57 58/18/58 56/19/56
f 56/19/56 58/18/58 60/15/60 30/14/30
f 57/18/57 59/15/59 60/15/60 58/18/58
