# Exported from Wings 3D 0.99.04a
mtllib chick.mtl
o unnamed_object1
#81 vertices, 71 faces
v 0.41018720 0.23327923 0.42251744
v -0.40981280 0.23327923 0.42251744
v -0.40981280 0.23327923 -0.39748256
v 0.41018720 0.23327923 -0.39748256
v 0.41018720 1.12248272 0.23336148
v -0.40981321 1.12248272 0.23336107
v -0.40981280 1.05327923 -0.39748256
v 0.41018720 1.05327923 -0.39748256
v -0.40981321 1.44543193 0.90232773
v 0.41018679 1.44543193 0.90232814
v -0.40981280 0.81458830 0.69010394
v 0.41018720 0.81458830 0.69010394
v 0.10755677 1.46822178 -0.88551950
v -0.10718196 1.46822178 -0.88551991
v 0.10755677 1.28544993 -0.99824613
v -0.10718196 1.28544993 -0.99824613
v 0.38471513 1.90639001 -0.59386805
v 0.38471513 1.13733415 -0.59386805
v 0.38471513 1.13733456 -1.36292350
v 0.38471513 1.90639001 -1.36292309
v -0.38434032 1.90638960 -0.59386764
v -0.38434073 1.13733415 -0.59386805
v -0.38434073 1.13733456 -1.36292391
v -0.38434032 1.90639001 -1.36292350
v 0.15533120 1.52856968 -1.25849486
v 0.15533120 1.21828209 -1.25849486
v 1.8719790e-4 1.37342609 -1.72158002
v -0.15495639 1.52856968 -1.25849486
v -0.15495639 1.21828209 -1.25849527
v -0.13872613 0.26653925 0.10306430
v -0.13872613 -0.28829817 0.10306430
v -0.13872613 -0.28829817 -2.8901994e-2
v -0.13872613 0.26653925 -2.8901994e-2
v -0.27069242 0.26653925 0.10306430
v -0.27069242 -0.28829858 0.10306430
v -0.27069242 -0.28829817 -2.8901994e-2
v -0.27069242 0.26653925 -2.8901994e-2
v -0.40627245 -0.38686094 -0.25256314
v -0.27069242 -0.38686094 0.10306430
v -2.7415642e-2 -0.38686094 -0.25256314
v -0.13872613 -0.38686094 0.10306430
v 0.27106641 -0.38686094 0.10306430
v 0.39906513 -0.38686094 -0.25256314
v 0.13910053 -0.38686094 0.10306430
v 2.0208318e-2 -0.38686094 -0.25256314
v 0.13910053 0.26653925 -2.8901994e-2
v 0.13910053 -0.28829817 -2.8901994e-2
v 0.13910053 -0.28829858 0.10306430
v 0.13910053 0.26653925 0.10306430
v 0.27106641 0.26653925 -2.8901994e-2
v 0.27106641 -0.28829817 -2.8901994e-2
v 0.27106641 -0.28829817 0.10306430
v 0.27106641 0.26653925 0.10306430
v 7.7232348e-2 1.96428570 -1.10058951
v 7.7232348e-2 1.81019581 -1.10058951
v 7.7232348e-2 1.81019581 -1.17857520
v 7.7232348e-2 1.96428570 -1.25467981
v -7.6857952e-2 1.96428570 -1.10058951
v -7.6857952e-2 1.81019540 -1.10058951
v -7.6857952e-2 1.81019581 -1.17857520
v -7.6857952e-2 1.96428570 -1.25467981
v 7.7232348e-2 1.96428570 -0.96300048
v -7.6857952e-2 1.96428570 -0.96300048
v 7.7232348e-2 1.81019581 -0.96300048
v -7.6857952e-2 1.81019540 -0.96300048
v 7.7232348e-2 1.81019581 -0.89578344
v 7.7232348e-2 1.96428570 -0.81967842
v -7.6857542e-2 1.96428570 -0.81967842
v -7.6857542e-2 1.81019540 -0.89578344
v -7.6857952e-2 2.23362454 -1.25808240
v 7.7232348e-2 2.23362454 -1.25808240
v 7.7232348e-2 2.23362454 -1.21992370
v -7.6857952e-2 2.23362454 -1.21992370
v 7.7232348e-2 2.27099481 -1.04815625
v 7.7232348e-2 2.27099481 -1.01543415
v -7.6857952e-2 2.27099481 -1.01543374
v -7.6857952e-2 2.27099481 -1.04815625
v -7.6857542e-2 2.25379654 -0.76278887
v 7.7232348e-2 2.25379654 -0.76278887
v -7.6857952e-2 2.25379654 -0.77337630
v 7.7232348e-2 2.25379654 -0.77337630
vt 0.0000000e+0 0.51286800
vt 5.2848000e-2 0.48644800
vt 8.3982000e-2 0.49391500
vt 8.3982000e-2 0.53595200
vt 0.10235200 0.48644800
vt 0.10235200 0.49391500
vt 0.10235200 0.53595200
vt 0.13668800 0.40666800
vt 0.13668800 0.75260900
vt 0.17648700 0.44308000
vt 0.17648700 0.58265500
vt 0.24948600 0.86193700
vt 0.25009200 0.81391600
vt 0.25628900 0.86193700
vt 0.26366100 0.78644300
vt 0.27567000 0.47329400
vt 0.27567100 0.47329400
vt 0.27756500 0.78644300
vt 0.27756500 0.81391600
vt 0.28691400 0.86859900
vt 0.29274800 0.86859900
vt 0.30209600 0.78644300
vt 0.30209600 0.81391600
vt 0.31408000 0.78644300
vt 0.31863200 0.55550900
vt 0.32764900 0.81391600
vt 0.33590400 0.86553300
vt 0.33779200 0.86553300
vt 0.42978300 0.40666700
vt 0.42978300 0.40666800
vt 0.42978300 0.75260900
vt 0.42978400 0.75260900
vt 0.50462800 7.1680000e-3
vt 0.50462800 0.36885700
vt 0.59071000 0.60271000
vt 0.59071000 0.92529000
vt 0.74504900 0.39998700
vt 0.74505000 0.39998700
vt 0.81713900 7.1680000e-3
vt 0.91329000 0.60271000
vt 0.91329000 0.92529000
vt 0.91911900 0.26148800
vt 1.00000000 0.54525800
vn 0.76492680 -0.54238782 0.34742258
vn -0.76492662 -0.54238810 0.34742253
vn -0.69831745 -0.53198133 -0.47890354
vn 0.69831765 -0.53198127 -0.47890332
vn 0.71223654 0.67469758 -0.19365508
vn -0.71223664 0.67469746 -0.19365513
vn -0.72438490 0.68824372 3.9838351e-2
vn 0.72438478 0.68824383 3.9838655e-2
vn -0.79017486 0.45964283 0.40540369
vn 0.79017471 0.45964340 0.40540335
vn -0.44772482 -0.32997197 0.83106016
vn 0.44772476 -0.32997172 0.83106029
vn 0.51935624 0.77118356 -0.36816438
vn -0.51935564 0.77118376 -0.36816482
vn 0.38515413 3.3364906e-2 -0.92224893
vn -0.38515336 3.3364859e-2 -0.92224925
vn 0.57735027 0.57735012 0.57735042
vn 0.57735042 -0.57735042 0.57734996
vn 0.57735047 -0.57734986 -0.57735047
vn 0.57735032 0.57735047 -0.57735001
vn -0.57735017 0.57735032 0.57735032
vn -0.57735032 -0.57735032 0.57735017
vn -0.57735017 -0.57734986 -0.57735078
vn -0.57735001 0.57735078 -0.57735001
vn 0.68232682 0.68232700 0.26241185
vn 0.68232675 -0.68232737 0.26241107
vn 1.6466949e-7 5.6267938e-7 -1.00000000
vn -0.68232719 0.68232657 0.26241202
vn -0.68232708 -0.68232689 0.26241145
vn 0.57735027 0.57735027 0.57735027
vn 0.65497541 9.6698611e-2 0.74943751
vn 0.75297806 0.46738554 -0.46322218
vn 0.57735027 0.57735027 -0.57735027
vn -0.57735027 0.57735027 0.57735027
vn -0.64199036 0.11366894 0.75823990
vn -0.74619063 0.49020611 -0.45044147
vn -0.57735027 0.57735027 -0.57735027
vn -0.95112604 0.26504270 -0.15846649
vn -0.53916871 -0.39380474 0.74445613
vn 0.95894175 0.20595110 -0.19497402
vn 0.55291664 -0.42278514 0.71800830
vn 0.54368354 -0.40260600 0.73642149
vn 0.95407798 0.24686950 -0.16967807
vn -0.54885027 -0.41348243 0.72649547
vn -0.95701956 0.22468794 -0.18338184
vn -0.57735027 0.57735027 -0.57735027
vn -0.75095987 0.47466347 -0.45907937
vn -0.65093049 0.10217674 0.75222963
vn -0.57735027 0.57735027 0.57735027
vn 0.57735027 0.57735027 -0.57735027
vn 0.74840938 0.48322826 -0.45428388
vn 0.64605489 0.10854425 0.75553374
vn 0.57735027 0.57735027 0.57735027
vn 0.98971977 0.14192422 -1.7671557e-2
vn 0.70710749 -0.70710608 -9.2938041e-7
vn 0.50730326 -0.73195190 -0.45485142
vn 0.71591963 -0.16303749 -0.67887985
vn -0.98971977 0.14192422 -1.7671557e-2
vn -0.70710608 -0.70710749 -9.2938227e-7
vn -0.50730226 -0.73195240 -0.45485173
vn -0.71591963 -0.16303749 -0.67887985
vn 0.98367387 0.17618202 3.6682531e-2
vn -0.98367391 0.17618134 3.6684825e-2
vn 0.70710772 -0.70710584 -2.8690495e-12
vn -0.70710567 -0.70710789 1.3770055e-6
vn 0.50730410 -0.73195245 0.45484961
vn 0.71020620 -0.22572030 0.66682644
vn -0.71020426 -0.22572097 0.66682828
vn -0.50730102 -0.73195324 0.45485177
vn -0.57979678 0.57247273 -0.57975052
vn 0.57979678 0.57247273 -0.57975052
vn 0.51230425 0.71983041 0.46838930
vn -0.51230425 0.71983041 0.46838930
vn 0.54741997 0.63966555 -0.53959186
vn 0.54742036 0.63966552 0.53959148
vn -0.54741936 0.63966603 0.53959190
vn -0.54741997 0.63966555 -0.53959186
vn -0.61846611 0.49921518 0.60686397
vn 0.61846691 0.49921723 0.60686146
vn -0.49411717 0.76484996 -0.41334339
vn 0.49411621 0.76484959 -0.41334522
g unnamed_object1_Material_Dc72.png
usemtl Material_Dc72.png
f 1/39/1 12/42/12 11/42/11 2/39/2
f 2/39/2 3/33/3 4/33/4 1/39/1
f 2/39/2 6/37/6 7/34/7 3/33/3
f 2/39/2 11/42/11 9/43/9 6/37/6
f 3/33/3 16/16/16 15/17/15 4/33/4
f 4/33/4 8/34/8 5/38/5 1/39/1
f 4/33/4 15/17/15 13/25/13 8/34/8
f 5/38/5 8/34/8 7/34/7 6/37/6
f 5/38/5 10/43/10 12/42/12 1/39/1
f 6/37/6 9/43/9 10/43/10 5/38/5
f 7/34/7 14/25/14 16/16/16 3/33/3
f 8/34/8 13/25/13 14/25/14 7/34/7
f 9/43/9 11/42/11 12/42/12 10/43/10
f 13/25/13 15/17/15 16/16/16 14/25/14
f 17/31/17 21/32/21 22/29/22 18/30/18
f 18/30/18 19/8/19 20/9/20 17/31/17
f 18/30/18 22/29/22 23/8/23 19/8/19
f 19/35/19 23/40/23 24/41/24 20/36/20
f 20/9/20 24/9/24 21/32/21 17/31/17
f 21/32/21 24/9/24 23/8/23 22/29/22
f 25/11/25 28/11/28 29/10/29 26/10/26
f 26/10/26 27/1/27 25/11/25
f 26/10/26 29/10/29 27/1/27
f 27/1/27 28/11/28 25/11/25
f 27/1/27 29/10/29 28/11/28
f 30/7/30 34/7/34 35/6/35 31/6/31
f 31/6/31 32/3/32 33/4/33 30/7/30
f 31/6/31 41/5/41 40/2/40 32/3/32
f 32/3/32 36/3/36 37/4/37 33/4/33
f 32/3/32 40/2/40 38/2/38 36/3/36
f 33/4/33 37/4/37 34/7/34 30/7/30
f 34/7/34 37/4/37 36/3/36 35/6/35
f 35/6/35 39/5/39 41/5/41 31/6/31
f 36/3/36 38/2/38 39/5/39 35/6/35
f 38/2/38 40/2/40 41/5/41 39/5/39
f 42/5/42 44/5/44 45/2/45 43/2/43
f 42/5/42 52/6/52 48/6/48 44/5/44
f 43/2/43 51/3/51 52/6/52 42/5/42
f 44/5/44 48/6/48 47/3/47 45/2/45
f 45/2/45 47/3/47 51/3/51 43/2/43
f 46/4/46 50/4/50 51/3/51 47/3/47
f 47/3/47 48/6/48 49/7/49 46/4/46
f 48/6/48 52/6/52 53/7/53 49/7/49
f 49/7/49 53/7/53 50/4/50 46/4/46
f 50/4/50 53/7/53 52/6/52 51/3/51
f 54/19/54 62/23/62 64/22/64 55/18/55
f 54/19/54 72/14/72 73/14/73 58/19/58
f 54/19/54 74/20/74 75/21/75 62/23/62
f 55/18/55 56/15/56 57/13/57 54/19/54
f 55/18/55 59/18/59 60/15/60 56/15/56
f 55/18/55 64/22/64 65/22/65 59/18/59
f 56/15/56 60/15/60 61/13/61 57/13/57
f 57/13/57 71/12/71 72/14/72 54/19/54
f 58/19/58 61/13/61 60/15/60 59/18/59
f 58/19/58 73/14/73 70/12/70 61/13/61
f 58/19/58 77/20/77 74/20/74 54/19/54
f 59/18/59 65/22/65 63/23/63 58/19/58
f 61/13/61 70/12/70 71/12/71 57/13/57
f 62/23/62 67/26/67 66/24/66 64/22/64
f 62/23/62 75/21/75 76/21/76 63/23/63
f 62/23/62 81/27/81 79/28/79 67/26/67
f 63/23/63 76/21/76 77/20/77 58/19/58
f 63/23/63 80/27/80 81/27/81 62/23/62
f 64/22/64 66/24/66 69/24/69 65/22/65
f 65/22/65 69/24/69 68/26/68 63/23/63
f 67/26/67 68/26/68 69/24/69 66/24/66
f 67/26/67 79/28/79 78/28/78 68/26/68
f 68/26/68 78/28/78 80/27/80 63/23/63
f 70/12/70 73/14/73 72/14/72 71/12/71
f 74/20/74 77/20/77 76/21/76 75/21/75
f 79/28/79 81/27/81 80/27/80 78/28/78
