# Blender3D v248 OBJ File: chick.blend
# www.blender3d.org
mtllib chick.mtl
v 1.000000 -1.000000 -1.000000
v 1.000000 -1.000000 1.000000
v -1.000000 -1.000000 1.000000
v -1.000000 -1.000000 -1.000000
v 0.538644 1.168789 -1.000000
v 0.538643 1.168789 1.000001
v -1.000000 1.000000 1.000000
v -1.000000 1.000000 -1.000000
v 2.170269 1.956470 1.000001
v 2.170270 1.956470 -0.999999
v 1.652650 0.417827 1.000000
v 1.652650 0.417827 -1.000000
v -2.190334 2.012055 -0.261877
v -2.190335 2.012055 0.261876
v -2.465277 1.566270 -0.261877
v -2.465277 1.566270 0.261876
v -1.478989 3.080758 -0.937873
v -1.478989 1.205012 -0.937873
v -3.354734 1.205013 -0.937873
v -3.354733 3.080758 -0.937873
v -1.478988 3.080757 0.937872
v -1.478989 1.205012 0.937873
v -3.354735 1.205013 0.937873
v -3.354734 3.080758 0.937872
v -3.100030 2.159245 -0.378400
v -3.100030 1.402446 -0.378400
v -4.229506 1.780846 -0.000000
v -3.100030 2.159245 0.378399
v -3.100031 1.402446 0.378399
v -0.983775 4.422150 -0.000000
v -0.983775 2.422150 -0.000000
v -2.983775 2.422150 -0.000000
v -2.983774 4.422150 -0.000000
v 0.220846 -0.918878 0.338813
v 0.220846 -2.272140 0.338813
v -0.101023 -2.272140 0.338813
v -0.101023 -0.918878 0.338813
v 0.220846 -0.918878 0.660682
v 0.220846 -2.272141 0.660682
v -0.101023 -2.272140 0.660682
v -0.101023 -0.918878 0.660682
v -0.646538 -2.512537 0.991365
v 0.220846 -2.512537 0.660682
v -0.646538 -2.512537 0.067324
v 0.220846 -2.512537 0.338813
v 0.220846 -2.512537 -0.660681
v -0.646538 -2.512537 -0.972873
v 0.220846 -2.512537 -0.338813
v -0.646538 -2.512537 -0.048832
v -0.101023 -0.918878 -0.338813
v -0.101023 -2.272140 -0.338813
v 0.220846 -2.272141 -0.338813
v 0.220846 -0.918878 -0.338813
v -0.101023 -0.918878 -0.660681
v -0.101023 -2.272140 -0.660681
v 0.220846 -2.272140 -0.660681
v 0.220846 -0.918878 -0.660681
v -1.983775 2.422150 -0.256239
v -0.983775 3.422150 -0.000000
v -1.983774 4.422150 -0.000000
v -2.983774 3.422150 -0.000000
v -1.983774 3.422150 -0.219488
v -1.983774 3.422150 0.214990
v -2.983774 3.422150 -0.000000
v -1.983774 4.422150 -0.000000
v -0.983775 3.422150 -0.000000
v -1.983775 2.422150 0.301028
v -2.983774 4.422150 -0.000000
v -2.983775 2.422150 -0.000000
v -0.983775 2.422150 -0.000000
v -0.983775 4.422150 -0.000000
vt 0.817139 0.007168
vt 0.504628 0.007168
vt 0.745050 0.399987
vt 0.504628 0.368857
vt 0.745049 0.399987
vt 1.000000 0.545258
vt 0.919119 0.261488
vt 0.318632 0.555509
vt 0.275671 0.473294
vt 0.275670 0.473294
vt 0.136688 0.406668
vt 0.136688 0.752609
vt 0.429783 0.752609
vt 0.429783 0.406668
vt 0.429784 0.752609
vt 0.429783 0.406667
vt 0.590710 0.602710
vt 0.913290 0.602710
vt 0.913290 0.925290
vt 0.590710 0.925290
vt 0.000000 0.512868
vt 0.176487 0.582655
vt 0.176487 0.443080
vt 0.083982 0.493915
vt 0.083982 0.535952
vt 0.102352 0.535952
vt 0.102352 0.493915
vt 0.052848 0.486448
vt 0.102352 0.486448
vt 0.350908 0.631143
vt 0.350908 0.815571
vt 0.507163 0.815571
vt 0.507163 0.631143
vt 0.194652 0.631143
vt 0.194652 0.815571
vt 0.350908 1.000000
vt 0.507163 1.000000
vt 0.194653 1.000000
vn -0.000000 -1.000000 0.000000
vn -0.109046 0.994037 -0.000000
vn -0.000000 -0.000000 1.000000
vn 0.000000 0.000000 -1.000000
vn -0.434749 0.900552 -0.000000
vn 0.908381 -0.418143 0.000000
vn 0.947804 -0.318853 0.000000
vn 0.647749 0.761854 0.000000
vn -0.434239 0.048815 -0.899474
vn -0.434239 0.048815 0.899474
vn -0.868413 -0.495842 -0.000000
vn -0.851135 0.524947 -0.000000
vn 1.000000 -0.000000 0.000000
vn -1.000000 0.000000 -0.000000
vn 0.000000 1.000000 0.000000
vn -0.317669 -0.000000 -0.948202
vn -0.317669 0.000000 0.948202
vn -0.317669 -0.948202 -0.000001
vn -0.317669 0.948202 0.000000
vn -0.403258 0.915086 0.000000
vn 0.252166 0.337626 0.906875
vn 0.213292 0.285578 -0.934319
vn 0.240396 0.321868 -0.915757
vn 0.225808 0.302335 0.926069
vn 0.231370 0.017874 -0.972702
vn -0.231370 0.017874 -0.972702
vn 0.108446 0.108445 -0.988170
vn -0.108445 0.108445 -0.988170
vn -0.106274 0.106274 0.988641
vn 0.106274 0.106274 0.988641
vn -0.249611 0.041619 0.967451
vn 0.249611 0.041619 0.967451
usemtl Material_Dc72.png
s off
f 1/1/1 2/1/1 3/2/1 4/2/1
f 5/3/2 8/4/2 7/4/2 6/5/2
f 2/1/3 6/5/3 7/4/3 3/2/3
f 5/3/4 1/1/4 4/2/4 8/4/4
f 5/3/5 6/5/5 9/6/5 10/6/5
f 6/5/3 2/1/3 11/7/3 9/6/3
f 1/1/4 5/3/4 10/6/4 12/7/4
f 2/1/6 1/1/6 12/7/6 11/7/6
f 12/7/7 10/6/7 9/6/7 11/7/7
f 7/4/8 8/4/8 13/8/8 14/8/8
f 8/4/9 4/2/9 15/9/9 13/8/9
f 3/2/10 7/4/10 14/8/10 16/10/10
f 4/2/11 3/2/11 16/10/11 15/9/11
f 16/10/12 14/8/12 13/8/12 15/9/12
f 19/11/4 20/12/4 17/13/4 18/14/4
f 21/15/3 24/12/3 23/11/3 22/16/3
f 17/13/13 21/15/13 22/16/13 18/14/13
f 18/14/1 22/16/1 23/11/1 19/11/1
f 19/17/14 23/18/14 24/19/14 20/20/14
f 20/12/15 24/12/15 21/15/15 17/13/15
f 27/21/16 25/22/16 26/23/16
f 28/22/17 27/21/17 29/23/17
f 25/22/13 28/22/13 29/23/13 26/23/13
f 26/23/18 29/23/18 27/21/18
f 27/21/19 28/22/19 25/22/19
f 36/24/4 37/25/4 34/26/4 35/27/4
f 38/26/3 41/25/3 40/24/3 39/27/3
f 34/26/13 38/26/13 39/27/13 35/27/13
f 36/24/14 40/24/14 41/25/14 37/25/14
f 37/25/15 41/25/15 38/26/15 34/26/15
f 40/24/20 36/24/20 44/28/20 42/28/20
f 35/27/13 39/27/13 43/29/13 45/29/13
f 39/27/21 40/24/21 42/28/21 43/29/21
f 36/24/22 35/27/22 45/29/22 44/28/22
f 45/29/1 43/29/1 42/28/1 44/28/1
f 46/29/1 48/29/1 49/28/1 47/28/1
f 55/24/23 56/27/23 46/29/23 47/28/23
f 52/27/24 51/24/24 49/28/24 48/29/24
f 56/27/13 52/27/13 48/29/13 46/29/13
f 51/24/20 55/24/20 47/28/20 49/28/20
f 54/25/15 50/25/15 53/26/15 57/26/15
f 55/24/14 51/24/14 50/25/14 54/25/14
f 57/26/13 53/26/13 52/27/13 56/27/13
f 53/26/3 50/25/3 51/24/3 52/27/3
f 55/24/4 54/25/4 57/26/4 56/27/4
f 58/30/25 62/31/25 59/32/25 31/33/25
f 32/34/26 61/35/26 62/31/26 58/30/26
f 62/31/27 60/36/27 30/37/27 59/32/27
f 61/35/28 33/38/28 60/36/28 62/31/28
f 64/35/29 63/31/29 65/36/29 68/38/29
f 63/31/30 66/32/30 71/37/30 65/36/30
f 69/34/31 67/30/31 63/31/31 64/35/31
f 67/30/32 70/33/32 66/32/32 63/31/32
