# Exported from Wings 3D 0.99.04a
mtllib Feather.mtl
o unnamed_object1
#30 vertices, 28 faces
v 2.6096346e-7 -0.90853270 2.1254048e-2
v 0.10803032 -0.24900012 7.5000000e-2
v -0.10803078 -0.24900012 7.5000000e-2
v 2.6096346e-7 -0.23154170 7.5000000e-2
v 0.14411863 0.62294734 7.5000000e-2
v -0.14411811 0.62294734 7.5000000e-2
v 2.6096346e-7 0.66348657 7.5000000e-2
v -0.38661547 0.54348986 -3.5850952e-18
v 0.38661501 0.54348986 -3.5850952e-18
v 2.6096346e-7 0.66366377 -7.5000000e-2
v -0.14411811 0.62312454 -7.5000000e-2
v 0.14411863 0.62312454 -7.5000000e-2
v -0.42270378 -0.11559972 -3.5850952e-18
v 0.42270332 -0.11559972 -3.5850952e-18
v 2.6096346e-7 -0.23136450 -7.5000000e-2
v -0.10803078 -0.24882292 -7.5000000e-2
v 0.10803032 -0.24882292 -7.5000000e-2
v -0.45000023 -0.61412896 -3.5850952e-18
v 0.44999977 -0.61412896 -3.5850952e-18
v -0.35587332 1.10493668 -3.5850952e-18
v 0.35587286 1.10493668 -3.5850952e-18
v 2.6096346e-7 1.42600676 -3.5850952e-18
v -0.17486026 1.36580590 -3.5850952e-18
v 0.17485980 1.36580590 -3.5850952e-18
v 2.6096346e-7 -0.90835550 -2.1254048e-2
v 2.6096346e-7 -1.57399324 -3.5850952e-18
v -4.6844963e-2 -1.57399324 -3.5850952e-18
v 4.6845485e-2 -1.57399324 -3.5850952e-18
v -8.0733351e-2 -0.90844410 -3.5850952e-18
v 8.0732894e-2 -0.90844410 -3.5850952e-18
vt 0.0000000e+0 0.31995500
vt 5.2293000e-2 0.60646600
vt 7.8439000e-2 0.74972100
vt 0.10458600 0.89297600
vt 0.30571100 0.97993300
vt 0.33185700 0.79041200
vt 0.35800400 0.60089100
vt 0.41029600 0.0000000e+0
vt 0.41029600 0.22185000
vt 0.50000000 0.0000000e+0
vt 0.50000000 0.22185000
vt 0.50000000 0.61092500
vt 0.50000000 0.80546200
vt 0.50000000 1.00000000
vt 0.58970400 0.0000000e+0
vt 0.58970400 0.22185000
vt 0.64199600 0.60089100
vt 0.66814300 0.79041200
vt 0.69428900 0.97993300
vt 0.89541500 0.89297600
vt 0.92156100 0.74972100
vt 0.94770700 0.60646600
vt 1.00000000 0.31995500
vn 5.7484734e-7 -5.9299742e-2 0.99824022
vn 0.12834780 -4.0561313e-2 0.99089940
vn -0.12834743 -4.0561268e-2 0.99089945
vn 2.6335763e-7 -4.8917779e-2 0.99880281
vn 0.12810945 3.8914112e-2 0.99099630
vn -0.12810915 3.8914109e-2 0.99099634
vn 2.5285450e-8 4.9309345e-2 0.99878355
vn -0.99318645 0.11653615 6.9509099e-6
vn 0.99318648 0.11653588 6.9509251e-6
vn 2.5291634e-8 4.9320792e-2 -0.99878299
vn -0.12811815 3.8921704e-2 -0.99099487
vn 0.12811844 3.8921707e-2 -0.99099484
vn -0.98795962 -0.15471195 -4.7597572e-6
vn 0.98795958 -0.15471218 -4.7597840e-6
vn 2.6312752e-7 -4.8910650e-2 -0.99880316
vn -0.12831953 -4.0555434e-2 -0.99090330
vn 0.12831990 -4.0555478e-2 -0.99090325
vn -0.91822843 -0.39605120 -1.2184678e-5
vn 0.91822843 -0.39605120 -1.2184678e-5
vn -0.96840695 0.24937519 1.4874206e-5
vn 0.96840695 0.24937519 1.4874288e-5
vn 5.1279543e-7 1.00000000 1.2601068e-5
vn -0.84940847 0.52773597 1.5653316e-5
vn 0.84940887 0.52773532 1.5653378e-5
vn 5.7459529e-7 -5.9290739e-2 -0.99824076
vn 3.0771647e-5 -0.99999999 -1.1418158e-4
vn -0.99272291 -0.12042102 -1.3749762e-5
vn 0.99272309 -0.12041958 -1.3749799e-5
vn -0.91634756 -0.40038376 -2.1032791e-5
vn 0.91634843 -0.40038176 -2.1032956e-5
g unnamed_object1_None_feather
usemtl None_feather
f 1/11/1 29/9/29 27/8/27 26/10/26
f 1/11/1 30/16/30 2/17/2 4/12/4
f 2/17/2 5/18/5 7/13/7 4/12/4
f 2/17/2 14/22/14 9/21/9 5/18/5
f 2/17/2 30/16/30 19/23/19 14/22/14
f 4/12/4 3/7/3 29/9/29 1/11/1
f 4/12/4 7/13/7 6/6/6 3/7/3
f 5/18/5 24/19/24 22/14/22 7/13/7
f 6/6/6 8/3/8 13/2/13 3/7/3
f 6/6/6 23/5/23 20/4/20 8/3/8
f 7/13/7 22/14/22 23/5/23 6/6/6
f 8/3/8 20/4/20 23/5/23 11/6/11
f 9/21/9 14/22/14 17/17/17 12/18/12
f 9/21/9 21/20/21 24/19/24 5/18/5
f 10/13/10 15/12/15 16/7/16 11/6/11
f 10/13/10 22/14/22 24/19/24 12/18/12
f 11/6/11 16/7/16 13/2/13 8/3/8
f 11/6/11 23/5/23 22/14/22 10/13/10
f 12/18/12 17/17/17 15/12/15 10/13/10
f 12/18/12 24/19/24 21/20/21 9/21/9
f 13/2/13 18/1/18 29/9/29 3/7/3
f 14/22/14 19/23/19 30/16/30 17/17/17
f 15/12/15 25/11/25 29/9/29 16/7/16
f 16/7/16 29/9/29 18/1/18 13/2/13
f 17/17/17 30/16/30 25/11/25 15/12/15
f 25/11/25 30/16/30 28/15/28 26/10/26
f 26/10/26 27/8/27 29/9/29 25/11/25
f 26/10/26 28/15/28 30/16/30 1/11/1
