# Exported from Wings 3D 0.99.04a
mtllib handgun.mtl
o unnamed_object3
#160 vertices, 160 faces
v -0.12285514 -0.19512706 0.59693704
v 0.13135560 -0.19512706 0.59693705
v 9.1105540e-2 -5.7589750e-2 1.10001131
v -8.2605279e-2 -5.7589750e-2 1.10001131
v -0.11300451 0.27838438 0.70212223
v 0.12150512 0.27838438 0.70212225
v 9.1105574e-2 0.23443775 1.12512741
v -8.2605272e-2 0.23443775 1.12512741
v 0.12150517 0.27020242 -0.11125686
v -0.11300448 0.27020242 -0.11125707
v 0.14028849 -0.27687544 -8.6276800e-2
v -0.13178781 -0.27687544 -8.6276820e-2
v -0.12707505 -0.18517658 -0.59106169
v 0.13557576 -0.18517658 -0.59106166
v -0.11300445 0.27067784 -0.56679598
v 0.12150518 0.27067784 -0.56679576
v 9.1105819e-2 0.20414310 -0.77175543
v -8.2604972e-2 0.20414310 -0.77175557
v 9.1105785e-2 -3.5763310e-2 -0.77629827
v -8.2605034e-2 -3.5763310e-2 -0.77629833
v 9.1105777e-2 -0.94341216 -0.71621918
v -8.2605076e-2 -0.94341216 -0.71621918
v -8.2605080e-2 -1.02442224 -0.40292866
v 9.1105773e-2 -1.02442224 -0.40292866
v 0.12150517 0.27741732 0.30311415
v -0.11300448 0.27741732 0.30311396
v 0.13135576 -0.18627851 0.36016077
v -0.12285510 -0.18627851 0.36016074
v -6.6848710e-2 -0.38879021 0.26648788
v 7.5349185e-2 -0.38879021 0.26648788
v 7.5349166e-2 -0.48040796 0.28718667
v -6.6848714e-2 -0.48040796 0.28718667
v -6.6848710e-2 -0.55656565 3.2339912e-2
v 7.5349188e-2 -0.55656565 3.2339912e-2
v 7.5349188e-2 -0.44462968 3.2820484e-2
v -6.6848710e-2 -0.44462968 3.2820484e-2
v 0.13135577 -0.56501031 -0.18164371
v 0.12150518 -0.47947662 -0.62120909
v -0.11300447 -0.47947662 -0.62120909
v -0.12285510 -0.56501031 -0.18164371
v 4.2502075e-3 -0.25316748 0.62018360
v -0.11300462 -0.12301467 0.91571518
v -0.15208945 6.7602265e-2 0.67306803
v -0.14329784 -0.17521139 0.46244225
v -8.6629770e-2 -0.36492620 0.41930101
v 0.12150496 -0.12301467 0.91571518
v 0.16058999 6.7602265e-2 0.67306805
v 0.15179841 -0.17521139 0.46244228
v 9.5130232e-2 -0.36492620 0.41930101
v 4.2501154e-3 -0.10209244 1.16108463
v 0.12150494 9.1678568e-2 1.17276779
v -0.11300469 9.1678568e-2 1.17276779
v 4.2503144e-3 0.34864509 0.71180697
v -0.11300460 0.28126512 0.96543255
v -0.11300448 0.27811106 0.49184844
v 0.12150503 0.28126512 0.96543255
v 0.12150516 0.27811106 0.49184855
v 4.2501307e-3 0.28544957 1.18445094
v 4.2503459e-3 0.34864509 -0.11424218
v 0.16059011 3.4874421e-2 -0.10230123
v 0.12150517 0.27271572 -0.35094994
v 0.12150517 0.27327537 0.10442176
v -0.15208942 3.4874421e-2 -0.10230140
v -0.11300448 0.27271572 -0.35095016
v -0.11300448 0.27327537 0.10442154
v 4.2503300e-3 -0.30849146 -1.2403158e-2
v 0.16059012 -0.20933200 -0.35613009
v 0.12150517 -0.17894296 0.15072865
v 9.5130324e-2 -0.40032490 -4.0242027e-2
v 0.15179850 -0.41753984 -0.16340613
v -0.15208942 -0.20933200 -0.35613013
v -0.11300448 -0.17894296 0.15072860
v -8.6629754e-2 -0.40032490 -4.0242027e-2
v -0.14329784 -0.41753984 -0.16340613
v 4.2503521e-3 -0.22534248 -0.64573643
v -0.15208940 6.3745593e-2 -0.56954898
v -0.11300446 -9.8454883e-2 -0.71772939
v -0.11300447 -0.32479663 -0.57339981
v 0.16059012 6.3745593e-2 -0.56954880
v 0.12150518 -9.8454883e-2 -0.71772935
v 0.12150518 -0.32479663 -0.57339981
v 4.2503665e-3 0.33965525 -0.56587820
v -0.11300438 0.25395137 -0.71093283
v 0.12150519 0.25395137 -0.71093261
v 4.2504439e-3 0.23887043 -0.79207534
v 0.12150519 8.6444473e-2 -0.79492038
v -0.11300438 8.6444473e-2 -0.79492051
v 4.2503674e-3 -6.5981487e-2 -0.79776555
v 4.2503512e-3 -0.99211684 -0.79340073
v 0.12150517 -1.04808663 -0.57903247
v 0.12150518 -0.74782614 -0.71110344
v -0.11300448 -1.04808663 -0.57903247
v -0.11300447 -0.74782614 -0.71110344
v 4.2503459e-3 -1.10405642 -0.36466421
v -0.11300448 -0.85332581 -0.29685271
v 0.12150517 -0.85332581 -0.29685271
v 4.2503451e-3 0.34864509 0.29462850
v 0.16059010 6.3734021e-2 0.32857082
v -0.15208942 6.3734021e-2 0.32857067
v 4.2503300e-3 -0.24168661 0.32630260
v 9.5130308e-2 -0.30727412 0.35310639
v -8.6629754e-2 -0.30727412 0.35310639
v 4.2502394e-3 -0.37352058 0.26303809
v -9.0548359e-2 -0.43459909 0.27683728
v -6.0255028e-2 -0.43768009 0.14739485
v 9.9048823e-2 -0.43459909 0.27683728
v 6.8755477e-2 -0.43768009 0.14739485
v 4.2502241e-3 -0.49567759 0.29063646
v 6.8755477e-2 -0.54061973 0.15292835
v -6.0255028e-2 -0.54061973 0.15292835
v 4.2502394e-3 -0.57522165 3.2259816e-2
v -9.0548359e-2 -0.50059767 3.2580198e-2
v -8.6629754e-2 -0.53924987 -5.8764816e-2
v 9.9048838e-2 -0.50059767 3.2580198e-2
v 9.5130324e-2 -0.53924987 -5.8764816e-2
v 4.2502394e-3 -0.42597368 3.2900579e-2
v 0.16059012 -0.52659383 -0.42205850
v 4.2503300e-3 -0.62555576 -0.14352782
v 4.2503521e-3 -0.46377089 -0.68759262
v -0.15208942 -0.52659383 -0.42205850
v 4.2502234e-3 -0.37453488 0.43033345
v 4.2501613e-3 -0.19039464 0.90742895
v 0.16058993 7.9125228e-2 0.94057387
v 0.16059005 6.6508952e-2 0.48973440
v 0.12542361 -0.33610016 0.38620370
v 4.2501000e-3 9.5863015e-2 1.25016576
v -0.15208954 7.9125228e-2 0.94057387
v 4.2502226e-3 0.34864509 0.97371878
v -0.15208942 6.6508952e-2 0.48973431
v 4.2503451e-3 0.34864509 0.49255321
v 4.2503486e-3 0.34864509 -0.35123090
v 0.16059011 4.7166202e-2 0.12757523
v -0.15208942 4.4927602e-2 -0.35010757
v 4.2503451e-3 0.34864509 9.6703825e-2
v 0.16059012 4.4927602e-2 -0.35010740
v 4.2503451e-3 -0.25431268 0.15844645
v 0.16059012 -0.36467582 -0.37644481
v -0.15208942 4.7166202e-2 0.12757505
v 4.2502847e-3 -0.37717073 -3.7154895e-2
v -0.11692310 -0.46978739 -4.9503421e-2
v 4.2503521e-3 -0.15718926 -0.71886215
v -0.15208942 -0.36467582 -0.37644481
v 0.16059012 7.7748241e-2 -0.71433096
v 4.2503521e-3 -0.31150356 -0.63905148
v -0.15208935 7.7748241e-2 -0.71433114
v 4.2504133e-3 0.31268574 -0.70979995
v 4.2504133e-3 8.9343217e-2 -0.82178358
v 4.2503486e-3 -1.13059019 -0.60405060
v 0.16059012 -0.80057597 -0.50397808
v 4.2503521e-3 -0.73024286 -0.78014523
v -0.15208942 -0.80057597 -0.50397807
v 4.2503451e-3 -0.87090909 -0.22781093
v 4.2502847e-3 -0.29766543 0.34207395
v -0.11692310 -0.33610016 0.38620370
v -8.1756779e-2 -0.48914991 0.15016160
v 4.2502243e-3 -0.42052348 0.14647260
v 9.0257228e-2 -0.48914991 0.15016160
v 4.2502243e-3 -0.55777634 0.15385060
v 4.2502847e-3 -0.56240404 -6.1851947e-2
v 0.12542367 -0.46978739 -4.9503421e-2
vt 0.15138300 0.78327800
vt 0.15335450 0.70904950
vt 0.15532600 0.63482100
vt 0.23312400 0.62764850
vt 0.23335150 0.70546325
vt 0.23335150 0.70546325
vt 0.23357900 0.78327800
vt 0.31092200 0.62047600
vt 0.31334850 0.70187700
vt 0.31577500 0.78327800
vt 0.33438050 0.56826150
vt 0.33546450 0.62289650
vt 0.34645750 0.57290400
vt 0.35433875 0.70308725
vt 0.35706200 0.52977600
vt 0.35745050 0.52291150
vt 0.35783900 0.51604700
vt 0.35853450 0.57754650
vt 0.36000700 0.62531700
vt 0.37321300 0.78327800
vt 0.39532900 0.70429750
vt 0.41899200 0.50648050
vt 0.41969775 0.51378825
vt 0.41969775 0.51378825
vt 0.42040350 0.52109600
vt 0.43065100 0.78327800
vt 0.45047850 0.60887900
vt 0.46928350 0.69607850
vt 0.48014500 0.49691400
vt 0.48194500 0.50466500
vt 0.48374500 0.51241600
vt 0.48808850 0.78327800
vt 0.51234750 0.55242850
vt 0.51556625 0.53143250
vt 0.51878500 0.51043650
vt 0.54095000 0.59244100
vt 0.54323800 0.68785950
vt 0.54552600 0.78327800
vt 0.54918750 0.55820000
vt 0.55742500 0.52395900
vt 0.57569850 0.40212900
vt 0.57569850 0.40212900
vt 0.59397200 0.28029900
vt 0.61742700 0.60490650
vt 0.61775300 0.69409225
vt 0.61775300 0.69409225
vt 0.61807900 0.78327800
vt 0.61992600 0.57204200
vt 0.62242500 0.53917750
vt 0.65219550 0.41170925
vt 0.65219550 0.41170925
vt 0.68196600 0.28424100
vt 0.68742500 0.55439600
vt 0.69063200 0.78327800
vt 0.69066450 0.58588400
vt 0.69226800 0.70032500
vt 0.69390400 0.61737200
vt 0.70317300 0.76917550
vt 0.71396925 0.70195850
vt 0.71396925 0.70195850
vt 0.71571400 0.75507300
vt 0.72476550 0.63474150
vt 0.72869250 0.42128950
vt 0.73567050 0.70359200
vt 0.73567050 0.70359200
vt 0.75562700 0.65211100
vt 0.76996000 0.28818300
vn -0.83583170 -0.49448448 0.23847528
vn 0.83583144 -0.49448473 0.23847569
vn 0.73195363 -0.51359990 0.44772651
vn -0.73195381 -0.51359988 0.44772625
vn -0.81946469 0.57312176 -3.0112891e-3
vn 0.81946481 0.57312160 -3.0108713e-3
vn 0.76164643 0.47357323 0.44229301
vn -0.76164655 0.47357345 0.44229258
vn 0.83735726 0.54665539 -8.3767896e-4
vn -0.83735726 0.54665539 -8.3769139e-4
vn 0.91449859 -0.17816628 0.36324799
vn -0.91449869 -0.17816607 0.36324785
vn -0.87888766 -0.24469799 -0.40948672
vn 0.87888771 -0.24469797 -0.40948664
vn -0.81535907 0.57750206 -4.0999452e-2
vn 0.81535914 0.57750198 -4.0999192e-2
vn 0.52692738 0.40409564 -0.74769931
vn -0.52692640 0.40409576 -0.74769993
vn 0.50382436 -0.35045783 -0.78951905
vn -0.50382386 -0.35045789 -0.78951933
vn 0.78681933 -0.25496839 -0.56205556
vn -0.78681933 -0.25496839 -0.56205558
vn -0.77654187 -0.52259885 0.35195620
vn 0.77654186 -0.52259885 0.35195622
vn 0.82599837 0.56364261 -5.8046968e-3
vn -0.82599834 0.56364265 -5.8047593e-3
vn 0.88184757 -0.31717916 -0.34891582
vn -0.88184750 -0.31717892 -0.34891620
vn -0.58873561 0.64218310 -0.49090859
vn 0.58873570 0.64218293 -0.49090870
vn 0.59852900 -0.69825083 0.39269429
vn -0.59852912 -0.69825074 0.39269427
vn -0.65147830 -0.75560489 6.8097503e-2
vn 0.65147825 -0.75560490 6.8097906e-2
vn 0.64348558 0.71504862 0.27318817
vn -0.64348567 0.71504869 0.27318779
vn 0.85670438 -0.34779213 0.38091761
vn 0.81658197 0.17768617 -0.54920079
vn -0.81658196 0.17768617 -0.54920081
vn -0.85670448 -0.34779219 0.38091735
vn -5.0651828e-8 -0.90395223 0.42763344
vn -0.79840601 -0.56508369 0.20791410
vn -0.99920467 3.2442072e-2 2.3184818e-2
vn -0.98751776 -0.15001606 -4.7998588e-2
vn -0.62709315 -0.63265565 0.45442383
vn 0.79840584 -0.56508380 0.20791446
vn 0.99920467 3.2441717e-2 2.3185363e-2
vn 0.98751771 -0.15001654 -4.7997955e-2
vn 0.62709286 -0.63265581 0.45442399
vn -6.8601978e-8 -0.75098276 0.66032181
vn 0.85341680 -3.2579200e-2 0.52020992
vn -0.85341702 -3.2579043e-2 0.52020957
vn 4.3475700e-8 0.99999529 -3.0679101e-3
vn -0.81989400 0.55867551 0.12512196
vn -0.82223543 0.56914618 -1.2349942e-3
vn 0.81989405 0.55867531 0.12512251
vn 0.82223550 0.56914608 -1.2347927e-3
vn -5.7921928e-8 0.72949420 0.68398700
vn 5.5184329e-10 0.99999953 -9.6803628e-4
vn 0.99851645 4.8643502e-2 2.4468513e-2
vn 0.83218230 0.55449950 -1.7131480e-3
vn 0.83313926 0.55300400 -8.0962526e-3
vn -0.99851645 4.8643528e-2 2.4468498e-2
vn -0.83218229 0.55449951 -1.7132121e-3
vn -0.83313925 0.55300401 -8.0962701e-3
vn -5.8320729e-8 -0.52983838 0.84809864
vn 0.99920995 -2.7534455e-2 -2.8658884e-2
vn 0.82492653 -0.55521931 0.10596100
vn 0.66018339 0.33847794 0.67051515
vn 0.97763075 -7.6608180e-2 0.19588086
vn -0.99920995 -2.7534428e-2 -2.8658944e-2
vn -0.82492656 -0.55521927 0.10596096
vn -0.66018364 0.33847829 0.67051473
vn -0.97763084 -7.6608047e-2 0.19588046
vn 5.7498400e-8 -0.49299495 -0.87003217
vn -0.99806411 4.7612417e-2 -4.0013658e-2
vn -0.70811654 -0.45876577 -0.53675407
vn -0.81677190 4.0512065e-2 -0.57553666
vn 0.99806412 4.7612354e-2 -4.0013453e-2
vn 0.70811672 -0.45876574 -0.53675386
vn 0.81677191 4.0512099e-2 -0.57553663
vn 8.0917036e-8 0.99602728 -8.9048634e-2
vn -0.74931716 0.55730639 -0.35767777
vn 0.74931760 0.55730619 -0.35767717
vn 6.5726338e-7 0.48346757 -0.87536227
vn 0.59894362 1.8224786e-2 -0.80058379
vn -0.59894289 1.8224795e-2 -0.80058433
vn 3.0538934e-7 -0.41194131 -0.91121038
vn 3.1573699e-9 -0.41504421 -0.90980124
vn 0.87522201 -0.46772221 -0.12337899
vn 0.82810951 5.9979133e-2 -0.55734832
vn -0.87522201 -0.46772220 -0.12337901
vn -0.82810950 5.9979138e-2 -0.55734833
vn -3.1702406e-9 -0.83062994 0.55682484
vn -0.81895769 -0.29153868 0.49428079
vn 0.81895768 -0.29153867 0.49428082
vn 1.4429104e-8 0.99998141 -6.0979519e-3
vn 0.99908721 3.3589795e-2 -2.6390797e-2
vn -0.99908720 3.3589866e-2 -2.6391003e-2
vn 5.3004374e-8 -0.70830188 -0.70590966
vn 0.62983494 0.24329932 -0.73764042
vn -0.62983469 0.24329972 -0.73764050
vn 4.4773235e-9 0.83385772 -0.55197944
vn -0.99448342 -4.9123516e-2 -9.2680103e-2
vn -0.64708497 0.74308833 -0.17058950
vn 0.99448341 -4.9123834e-2 -9.2680106e-2
vn 0.64708499 0.74308832 -0.17058947
vn -6.5918926e-9 -0.84537182 0.53417832
vn 0.64296489 -0.73569237 0.21296216
vn -0.64296492 -0.73569236 0.21296209
vn 4.0892468e-10 -0.99998770 4.9606778e-3
vn -0.98253300 -1.7051752e-2 0.18530556
vn -0.70282794 -0.68738683 0.18311809
vn 0.98253288 -1.7051805e-2 0.18530616
vn 0.70282783 -0.68738678 0.18311870
vn -7.5811856e-9 0.96117304 0.27594635
vn 0.99921325 -9.0779614e-3 -3.8606718e-2
vn -1.5505960e-8 -0.67283036 0.73979681
vn 3.2475400e-9 0.31115590 -0.95035888
vn -0.99921324 -9.0779621e-3 -3.8606781e-2
vn -2.7607661e-8 -0.78022367 0.62550062
vn -5.0336172e-8 -0.95512191 0.29621300
vn 0.99403233 -1.2894954e-3 0.10907829
vn 0.99873876 5.0031142e-2 -4.2149048e-3
vn 0.98083169 -0.15962312 -0.11175710
vn -1.0116909e-7 -5.3302361e-2 0.99857842
vn -0.99403239 -1.2891993e-3 0.10907771
vn 2.1237980e-8 0.98646586 0.16396680
vn -0.99873875 5.0031380e-2 -4.2153278e-3
vn 2.8932013e-8 0.99999926 -1.2147115e-3
vn 9.1690384e-9 0.99994684 -1.0310987e-2
vn 0.99970455 2.3139785e-2 7.4412281e-3
vn -0.99782025 6.5892805e-2 -3.5909870e-3
vn 7.3851338e-9 0.99996098 -8.8338808e-3
vn 0.99782025 6.5892788e-2 -3.5909246e-3
vn -2.8403430e-8 -0.98191336 0.18933079
vn 0.99859177 -1.3629529e-2 -5.1270974e-2
vn -0.99970455 2.3139809e-2 7.4411877e-3
vn -3.0861666e-8 0.48573391 0.87410673
vn -0.94715523 -8.0399344e-2 0.31053648
vn 1.0852674e-7 -0.70297236 -0.71121717
vn -0.99859177 -1.3629511e-2 -5.1271047e-2
vn 0.95583566 2.1509147e-2 -0.29311354
vn 2.4312332e-8 7.9241866e-2 -0.99685542
vn -0.95583551 2.1509230e-2 -0.29311403
vn 4.0169234e-7 0.89065899 -0.45467193
vn 5.5330767e-7 2.2162677e-2 -0.99975438
vn -1.3053577e-10 -0.96662066 -0.25621182
vn 0.99561008 -8.8030300e-2 -3.1800032e-2
vn 3.6208048e-9 0.16472096 -0.98634021
vn -0.99561008 -8.8030297e-2 -3.1800066e-2
vn -9.2186305e-9 -0.45487252 0.89055656
vn 4.5458566e-8 0.34557160 -0.93839239
vn -0.98083175 -0.15962250 -0.11175751
vn -0.99993571 -3.5576044e-3 1.0766949e-2
vn 9.1795159e-10 0.97585007 -0.21844140
vn 0.99993570 -3.5576556e-3 1.0767044e-2
vn -2.0201450e-9 -0.96052335 0.27819937
vn -6.6418895e-9 -0.98653605 0.16354397
vn 0.94715496 -8.0399505e-2 0.31053727
g unnamed_object3_Material_gun9.JPG
usemtl Material_gun9.JPG
f 1/8/1 45/11/45 121/11/121 41/8/41
f 2/8/2 41/8/41 121/11/121 49/11/49
f 2/8/2 47/9/47 123/5/123 46/4/46
f 2/8/2 48/12/48 124/14/124 47/9/47
f 2/8/2 49/11/49 125/13/125 48/12/48
f 3/3/3 46/4/46 123/5/123 51/2/51
f 3/3/3 51/2/51 126/2/126 50/3/50
f 4/3/4 50/3/50 126/2/126 52/2/52
f 5/10/5 43/9/43 127/6/127 54/7/54
f 5/10/5 54/7/54 128/7/128 53/10/53
f 6/10/6 47/9/47 124/14/124 57/20/57
f 6/10/6 53/10/53 128/7/128 56/7/56
f 7/1/7 56/7/56 128/7/128 58/1/58
f 8/1/8 54/7/54 127/6/127 52/2/52
f 8/1/8 58/1/58 128/7/128 54/7/54
f 9/38/9 61/47/61 131/47/131 59/38/59
f 9/38/9 62/32/62 132/28/132 60/37/60
f 10/38/10 59/38/59 131/47/131 64/47/64
f 10/38/10 64/47/64 133/45/133 63/37/63
f 11/36/11 60/37/60 132/28/132 68/27/68
f 11/36/11 68/27/68 136/27/136 66/36/66
f 11/36/11 70/39/70 137/48/137 67/44/67
f 12/36/12 63/37/63 133/45/133 71/44/71
f 12/36/12 66/36/66 136/27/136 72/27/72
f 12/36/12 74/39/74 140/34/140 73/33/73
f 13/57/13 71/44/71 133/45/133 76/56/76
f 13/57/13 77/62/77 141/62/141 75/57/75
f 14/57/14 67/44/67 137/48/137 81/55/81
f 14/57/14 75/57/75 141/62/141 80/62/80
f 14/57/14 80/62/80 143/59/143 79/56/79
f 15/54/15 64/47/64 131/47/131 82/54/82
f 15/54/15 76/56/76 133/45/133 64/47/64
f 16/54/16 79/56/79 143/59/143 84/58/84
f 16/54/16 82/54/82 131/47/131 61/47/61
f 17/61/17 84/58/84 143/59/143 86/64/86
f 17/61/17 86/64/86 147/65/147 85/61/85
f 18/61/18 85/61/85 147/65/147 87/64/87
f 19/66/19 80/62/80 141/62/141 88/66/88
f 19/66/19 86/64/86 143/59/143 80/62/80
f 20/66/20 88/66/88 141/62/141 77/62/77
f 21/67/21 90/52/90 148/52/148 89/67/89
f 21/67/21 91/63/91 149/50/149 90/52/90
f 22/67/22 89/67/89 148/52/148 92/52/92
f 23/43/23 92/52/92 148/52/148 94/43/94
f 24/43/24 90/52/90 149/50/149 96/41/96
f 24/43/24 94/43/94 148/52/148 90/52/90
f 25/26/25 57/20/57 124/14/124 98/21/98
f 25/26/25 62/32/62 134/32/134 97/26/97
f 26/26/26 65/32/65 138/28/138 99/21/99
f 26/26/26 97/26/97 134/32/134 65/32/65
f 27/19/27 48/12/48 125/13/125 101/18/101
f 27/19/27 98/21/98 124/14/124 48/12/48
f 27/19/27 101/18/101 153/18/153 100/19/100
f 28/19/28 99/21/99 138/28/138 72/27/72
f 28/19/28 100/19/100 153/18/153 102/18/102
f 29/15/29 102/18/102 153/18/153 103/15/103
f 29/15/29 105/25/105 155/24/155 104/16/104
f 30/15/30 101/18/101 125/13/125 106/16/106
f 30/15/30 103/15/103 153/18/153 101/18/101
f 31/17/31 49/11/49 121/11/121 108/17/108
f 31/17/31 106/16/106 125/13/125 49/11/49
f 32/17/32 104/16/104 155/24/155 110/22/110
f 32/17/32 108/17/108 121/11/121 45/11/45
f 33/29/33 110/22/110 155/24/155 112/30/112
f 33/29/33 113/35/113 159/35/159 111/29/111
f 34/29/34 111/29/111 159/35/159 115/35/115
f 34/29/34 115/35/115 160/34/160 114/30/114
f 35/31/35 69/33/69 139/33/139 116/31/116
f 35/31/35 114/30/114 160/34/160 69/33/69
f 36/31/36 112/30/112 155/24/155 105/25/105
f 36/31/36 116/31/116 139/33/139 73/33/73
f 37/40/37 96/41/96 149/50/149 117/49/117
f 37/40/37 115/35/115 159/35/159 118/40/118
f 38/53/38 91/63/91 150/63/150 119/53/119
f 38/53/38 117/49/117 149/50/149 91/63/91
f 39/53/39 93/63/93 151/51/151 120/49/120
f 39/53/39 119/53/119 150/63/150 93/63/93
f 40/40/40 113/35/113 140/34/140 74/39/74
f 40/40/40 118/40/118 159/35/159 113/35/113
f 40/40/40 120/49/120 151/51/151 95/41/95
f 41/8/41 122/4/122 42/4/42 1/8/1
f 42/4/42 122/4/122 50/3/50 4/3/4
f 42/4/42 127/6/127 43/9/43 1/8/1
f 43/9/43 129/14/129 44/12/44 1/8/1
f 44/12/44 129/14/129 99/21/99 28/19/28
f 44/12/44 154/13/154 45/11/45 1/8/1
f 45/11/45 154/13/154 104/16/104 32/17/32
f 46/4/46 122/4/122 41/8/41 2/8/2
f 50/3/50 122/4/122 46/4/46 3/3/3
f 51/2/51 123/5/123 56/7/56 7/1/7
f 52/2/52 126/2/126 58/1/58 8/1/8
f 52/2/52 127/6/127 42/4/42 4/3/4
f 53/10/53 130/20/130 55/20/55 5/10/5
f 55/20/55 129/14/129 43/9/43 5/10/5
f 55/20/55 130/20/130 97/26/97 26/26/26
f 56/7/56 123/5/123 47/9/47 6/10/6
f 57/20/57 130/20/130 53/10/53 6/10/6
f 58/1/58 126/2/126 51/2/51 7/1/7
f 59/38/59 134/32/134 62/32/62 9/38/9
f 60/37/60 135/46/135 61/47/61 9/38/9
f 61/47/61 135/46/135 79/56/79 16/54/16
f 63/37/63 138/28/138 65/32/65 10/38/10
f 65/32/65 134/32/134 59/38/59 10/38/10
f 66/36/66 139/33/139 69/33/69 11/36/11
f 67/44/67 135/46/135 60/37/60 11/36/11
f 68/27/68 132/28/132 98/21/98 27/19/27
f 69/33/69 160/34/160 70/39/70 11/36/11
f 70/39/70 160/34/160 115/35/115 37/40/37
f 71/44/71 142/48/142 74/39/74 12/36/12
f 72/27/72 136/27/136 100/19/100 28/19/28
f 72/27/72 138/28/138 63/37/63 12/36/12
f 73/33/73 139/33/139 66/36/66 12/36/12
f 73/33/73 140/34/140 112/30/112 36/31/36
f 74/39/74 142/48/142 120/49/120 40/40/40
f 75/57/75 144/55/144 78/55/78 13/57/13
f 76/56/76 145/60/145 77/62/77 13/57/13
f 77/62/77 145/60/145 87/64/87 20/66/20
f 78/55/78 142/48/142 71/44/71 13/57/13
f 78/55/78 144/55/144 119/53/119 39/53/39
f 79/56/79 135/46/135 67/44/67 14/57/14
f 81/55/81 137/48/137 117/49/117 38/53/38
f 81/55/81 144/55/144 75/57/75 14/57/14
f 82/54/82 146/58/146 83/58/83 15/54/15
f 83/58/83 145/60/145 76/56/76 15/54/15
f 83/58/83 146/58/146 85/61/85 18/61/18
f 84/58/84 146/58/146 82/54/82 16/54/16
f 85/61/85 146/58/146 84/58/84 17/61/17
f 87/64/87 145/60/145 83/58/83 18/61/18
f 87/64/87 147/65/147 88/66/88 20/66/20
f 88/66/88 147/65/147 86/64/86 19/66/19
f 89/67/89 150/63/150 91/63/91 21/67/21
f 92/52/92 151/51/151 93/63/93 22/67/22
f 93/63/93 150/63/150 89/67/89 22/67/22
f 94/43/94 152/42/152 95/41/95 23/43/23
f 95/41/95 151/51/151 92/52/92 23/43/23
f 95/41/95 152/42/152 118/40/118 40/40/40
f 96/41/96 152/42/152 94/43/94 24/43/24
f 97/26/97 130/20/130 57/20/57 25/26/25
f 98/21/98 132/28/132 62/32/62 25/26/25
f 99/21/99 129/14/129 55/20/55 26/26/26
f 100/19/100 136/27/136 68/27/68 27/19/27
f 102/18/102 154/13/154 44/12/44 28/19/28
f 103/15/103 156/25/156 105/25/105 29/15/29
f 104/16/104 154/13/154 102/18/102 29/15/29
f 105/25/105 156/25/156 116/31/116 36/31/36
f 106/16/106 157/23/157 107/25/107 30/15/30
f 107/25/107 156/25/156 103/15/103 30/15/30
f 107/25/107 157/23/157 114/30/114 35/31/35
f 108/17/108 158/22/158 109/22/109 31/17/31
f 109/22/109 157/23/157 106/16/106 31/17/31
f 109/22/109 158/22/158 111/29/111 34/29/34
f 110/22/110 158/22/158 108/17/108 32/17/32
f 111/29/111 158/22/158 110/22/110 33/29/33
f 112/30/112 140/34/140 113/35/113 33/29/33
f 114/30/114 157/23/157 109/22/109 34/29/34
f 116/31/116 156/25/156 107/25/107 35/31/35
f 117/49/117 137/48/137 70/39/70 37/40/37
f 118/40/118 152/42/152 96/41/96 37/40/37
f 119/53/119 144/55/144 81/55/81 38/53/38
f 120/49/120 142/48/142 78/55/78 39/53/39
