# Exported from Wings 3D 0.99.04a
mtllib shotgun.mtl
o cube1
#75 vertices, 59 faces
v -0.16935408 -0.26712000 1.19452948
v -0.16935408 0.26712000 0.91301616
v 0.16935408 0.26712000 0.91301616
v 0.16935408 -0.26712000 1.19452948
v -0.16935408 -0.26712000 -0.91301616
v -0.16935408 0.26712000 -0.91301616
v 0.16935408 0.26712000 -0.91301616
v 0.16935408 -0.26712000 -0.91301616
v -0.22862801 0.0000000e+0 1.19452948
v -5.8073204e-19 -0.36061200 1.19452948
v -0.22862801 -0.36061200 -2.3229282e-18
v -5.8073204e-19 0.26095534 1.23257182
v -0.22862801 0.30987770 -2.3229282e-18
v 0.22862801 0.0000000e+0 1.19452948
v 0.22862801 0.30987770 -2.3229282e-18
v 0.22862801 -0.36061200 -2.3229282e-18
v -0.22862801 0.0000000e+0 -1.23257182
v -5.8073204e-19 -0.36061200 -1.23257182
v -5.8073204e-19 0.17760613 -1.23257182
v 0.22862801 0.0000000e+0 -1.23257182
v -5.8073204e-19 0.0000000e+0 1.19452948
v 0.30483734 0.0000000e+0 -2.3229282e-18
v -5.8073204e-19 -0.48081600 -2.3229282e-18
v -5.8073204e-19 0.43008170 -2.3229282e-18
v -5.8073204e-19 0.0000000e+0 -1.64342909
v -0.30483734 0.0000000e+0 -2.3229282e-18
v 0.16846800 0.12431846 4.23969317
v 0.15564414 5.9866710e-2 4.23969317
v 0.11912487 5.2271534e-3 4.23969317
v 6.4469912e-2 -3.1281831e-2 4.23969317
v -2.6612812e-17 -4.4102082e-2 4.23969317
v -6.4469912e-2 -3.1281831e-2 4.23969317
v -0.11912487 5.2271534e-3 4.23969317
v -0.15564414 5.9866710e-2 4.23969317
v -0.16846800 0.12431846 4.23969317
v -0.15564414 0.18877021 4.23969317
v -0.11912487 0.24340977 4.23969317
v -6.4469912e-2 0.27991875 4.23969317
v -6.7875571e-17 0.29273900 4.23969317
v 6.4469912e-2 0.27991875 4.23969317
v 0.11912487 0.24340977 4.23969317
v 0.15564414 0.18877021 4.23969317
v 0.16846800 0.11632154 1.09629215
v 0.15564414 5.1869787e-2 1.11057146
v 0.11912487 -2.7697696e-3 1.12267688
v 6.4469912e-2 -3.9278754e-2 1.13076546
v -2.6612812e-17 -5.2099005e-2 1.13360579
v -6.4469912e-2 -3.9278754e-2 1.13076546
v -0.11912487 -2.7697696e-3 1.12267688
v -0.15564414 5.1869787e-2 1.11057146
v -0.16846800 0.11632154 1.09629215
v -0.15564414 0.18077329 1.08201284
v -0.11912487 0.23541285 1.06990742
v -6.4469912e-2 0.27192183 1.06181884
v -6.7875571e-17 0.28474208 1.05897851
v 6.4469912e-2 0.27192183 1.06181884
v 0.11912487 0.23541285 1.06990742
v 0.15564414 0.18077329 1.08201284
v 0.34800000 -0.38026150 -3.27583300
v 0.32151008 -0.74920484 -3.07217865
v 0.24607316 -1.06197990 -2.89952883
v 0.13317383 -1.27096952 -2.78416791
v -4.2393367e-18 -1.34435691 -2.74365854
v -0.13317383 -1.27096952 -2.78416791
v -0.24607316 -1.06197990 -2.89952883
v -0.32151008 -0.74920484 -3.07217865
v -0.34800000 -0.38026150 -3.27583300
v -0.32151008 -0.18862788 -3.47948735
v -0.24607316 -8.1549275e-2 -3.65213717
v -0.13317383 0.11782682 -3.76749809
v -8.9474754e-17 0.18783839 -3.80800746
v 0.13317383 0.11782682 -3.76749809
v 0.24607316 -8.1549275e-2 -3.65213717
v 0.32151008 -0.18862788 -3.47948735
v -2.5548191e-17 0.15085073 0.58826138
vn -0.67394820 -0.50685498 0.53748661
vn -0.71948220 0.60604084 0.33920476
vn 0.71948220 0.60604084 0.33920476
vn 0.67394820 -0.50685498 0.53748661
vn -0.80672402 -0.55991839 -0.18891203
vn -0.64105760 0.73380047 -0.22490448
vn 0.64105760 0.73380047 -0.22490448
vn 0.80672402 -0.55991839 -0.18891203
vn -0.79698844 0.14101079 0.58730348
vn 0.0000000e+0 -0.62700090 0.77901853
vn -0.80437025 -0.59411127 -4.5054500e-3
vn 0.0000000e+0 0.85054790 0.52589758
vn -0.71217565 0.70192334 -1.0462442e-2
vn 0.79698844 0.14101079 0.58730348
vn 0.71217565 0.70192334 -1.0462442e-2
vn 0.80437025 -0.59411127 -4.5054500e-3
vn -0.96199508 7.1592208e-2 -0.26351474
vn 3.9147857e-17 -0.94515001 -0.32663657
vn 7.7964561e-18 0.95379512 -0.30045777
vn 0.96199508 7.1592208e-2 -0.26351474
vn 0.0000000e+0 0.22429434 0.97452145
vn 0.99985332 1.7031556e-2 -1.8083466e-3
vn 3.2291051e-17 -0.99998829 -4.8396624e-3
vn -7.2861969e-18 0.99980786 -1.9602152e-2
vn 0.0000000e+0 0.28558444 -0.95835355
vn -0.99985332 1.7031556e-2 -1.8083466e-3
vn 0.89090872 1.1117188e-7 0.45418240
vn 0.82276674 -0.34080055 0.45487347
vn 0.62950570 -0.62950420 0.45546355
vn 0.34060881 -0.82230000 0.45586000
vn 1.7630150e-16 -0.88997996 0.45599964
vn -0.34060881 -0.82230000 0.45586000
vn -0.62950570 -0.62950420 0.45546355
vn -0.82276674 -0.34080055 0.45487347
vn -0.89090872 1.1117188e-7 0.45418240
vn -0.82341491 0.34106995 0.45349662
vn -0.63042154 0.63042271 0.45291930
vn -0.34125582 0.82386650 0.45253558
vn 8.8332424e-17 0.89181451 0.45240123
vn 0.34125582 0.82386650 0.45253558
vn 0.63042154 0.63042271 0.45291930
vn 0.82341491 0.34106995 0.45349662
vn 0.89090955 -9.8241854e-2 -0.44342837
vn 0.79712474 -0.42532177 -0.42859484
vn 0.59464132 -0.68737276 -0.41703764
vn 0.31657208 -0.85549172 -0.40977558
vn -1.0475394e-16 -0.91329162 -0.40730628
vn -0.31657208 -0.85549172 -0.40977558
vn -0.59464132 -0.68737276 -0.41703764
vn -0.79712474 -0.42532177 -0.42859484
vn -0.89090955 -9.8241854e-2 -0.44342837
vn -0.85177912 0.25115289 -0.45977665
vn -0.67245206 0.56758583 -0.47503111
vn -0.37196494 0.79082159 -0.48604866
vn -2.2180073e-16 0.87167129 -0.49009098
vn 0.37196494 0.79082159 -0.48604866
vn 0.67245206 0.56758583 -0.47503111
vn 0.85177912 0.25115289 -0.45977665
vn 0.93110797 -0.19110545 -0.31067131
vn 0.89708853 -0.35030289 -0.26929549
vn 0.83675300 -0.50258073 -0.21738682
vn 0.63245159 -0.76549208 -0.11843510
vn 0.0000000e+0 -0.99847097 -5.5278559e-2
vn -0.63245159 -0.76549208 -0.11843510
vn -0.83675300 -0.50258073 -0.21738682
vn -0.89708853 -0.35030289 -0.26929549
vn -0.93110797 -0.19110545 -0.31067131
vn -0.91909378 0.10644579 -0.37938888
vn -0.87437828 0.26667360 -0.40539834
vn -0.76398062 0.46276172 -0.44965009
vn -3.1049510e-16 0.83050728 -0.55700777
vn 0.76398062 0.46276172 -0.44965009
vn 0.87437828 0.26667360 -0.40539834
vn 0.91909378 0.10644579 -0.37938888
vn -1.8392443e-16 0.69583939 0.71819742
g cube1_color_058_000_000
usemtl color_058_000_000
f 1//1 10//10 21//21 9//9
f 1//1 11//11 23//23 10//10
f 2//2 13//13 26//26 9//9
f 3//3 15//15 24//24 12//12
f 4//4 14//14 21//21 10//10
f 4//4 16//16 22//22 14//14
f 5//5 18//18 23//23 11//11
f 6//6 17//17 26//26 13//13
f 6//6 19//19 25//25 17//17
f 7//7 19//19 24//24 15//15
f 7//7 20//20 25//25 19//19
f 8//8 20//20 22//22 16//16
f 9//9 21//21 12//12 2//2
f 9//9 26//26 11//11 1//1
f 10//10 23//23 16//16 4//4
f 11//11 26//26 17//17 5//5
f 12//12 21//21 14//14 3//3
f 12//12 24//24 13//13 2//2
f 13//13 24//24 19//19 6//6
f 14//14 22//22 15//15 3//3
f 15//15 22//22 20//20 7//7
f 16//16 23//23 18//18 8//8
f 17//17 25//25 18//18 5//5
f 18//18 25//25 20//20 8//8
g cube1_color_069_124_124
usemtl color_069_124_124
f 27//27 42//42 41//41 40//40 39//39 38//38 37//37 36//36 35//35 34//34 33//33 32//32 31//31 30//30 29//29 28//28
f 27//27 43//43 58//58 42//42
f 28//28 44//44 43//43 27//27
f 29//29 45//45 44//44 28//28
f 30//30 46//46 45//45 29//29
f 31//31 47//47 46//46 30//30
f 32//32 48//48 47//47 31//31
f 33//33 49//49 48//48 32//32
f 34//34 50//50 49//49 33//33
f 35//35 51//51 50//50 34//34
f 36//36 52//52 51//51 35//35
f 37//37 53//53 52//52 36//36
f 38//38 54//54 53//53 37//37
f 39//39 55//55 54//54 38//38
f 40//40 56//56 55//55 39//39
f 41//41 57//57 56//56 40//40
f 42//42 58//58 57//57 41//41
f 44//44 45//45 46//46 47//47 48//48 49//49 50//50 51//51 52//52 53//53 54//54 55//55 56//56 57//57 58//58 43//43
g cube1_color_087_055_000
usemtl color_087_055_000
f 59//59 75//75 60//60
f 60//60 61//61 62//62 63//63 64//64 65//65 66//66 67//67 68//68 69//69 70//70 71//71 72//72 73//73 74//74 59//59
f 60//60 75//75 61//61
f 61//61 75//75 62//62
f 62//62 75//75 63//63
f 63//63 75//75 64//64
f 64//64 75//75 65//65
f 65//65 75//75 66//66
f 66//66 75//75 67//67
f 67//67 75//75 68//68
f 68//68 75//75 69//69
f 69//69 75//75 70//70
f 70//70 75//75 71//71
f 71//71 75//75 72//72
f 72//72 75//75 73//73
f 73//73 75//75 74//74
f 74//74 75//75 59//59
